<svg xmlns="http://www.w3.org/2000/svg" viewBox="0 0 512 512">
  <defs>
    <linearGradient id="bg" x1="70" y1="40" x2="440" y2="480" gradientUnits="userSpaceOnUse">
      <stop stop-color="#54B9F4"/>
      <stop offset="1" stop-color="#2F9FDB"/>
    </linearGradient>
    <linearGradient id="book" x1="232" y1="182" x2="409" y2="430" gradientUnits="userSpaceOnUse">
      <stop stop-color="#6B3F1F"/>
      <stop offset="1" stop-color="#3B2112"/>
    </linearGradient>
    <linearGradient id="gold" x1="270" y1="220" x2="365" y2="383" gradientUnits="userSpaceOnUse">
      <stop stop-color="#FFD86A"/>
      <stop offset="1" stop-color="#F4A51E"/>
    </linearGradient>
    <filter id="softShadow" x="-20%" y="-20%" width="140%" height="150%">
      <feDropShadow dx="0" dy="13" stdDeviation="14" flood-color="#176D96" flood-opacity=".22"/>
    </filter>
  </defs>

  <rect width="512" height="512" rx="96" fill="url(#bg)"/>

  <g filter="url(#softShadow)">
    <path d="M204 246C161 223 115 188 83 133c-11-19-24-12-26 13-5 69 54 122 104 148-44-14-79-31-111-58-14-12-24-5-22 16 6 56 54 93 113 117-33-2-64-7-94-19-18-7-26 4-17 25 18 41 58 65 119 74-21 12-46 18-75 22-22 3-26 20-8 35 43 34 106 4 139-44 21-30 32-71 26-109-5-34-6-74-27-107z" fill="#FFFFFF"/>
    <path d="M201 258c-39-13-76-36-110-72 13 44 47 77 101 103-45-8-83-23-120-50 18 38 53 66 107 84-35-1-66-8-96-21 21 30 58 49 109 57-18 21-44 35-77 43 41 9 77-8 106-52 15-23 20-57 9-87-7-1-17-2-29-5z" fill="#F6FAFD" opacity=".9"/>
    <path d="M241 219c34-29 62-69 82-120 8-20 34-20 54-6 30 21 39 62 21 96-20 38-56 62-99 66-24 2-45-10-58-36z" fill="#FFFFFF"/>
    <path d="M367 147c17-2 37 9 45 27 7 15 4 33-8 45l43 9c-5-22-22-48-44-65-12-9-25-15-36-16z" fill="#FFFFFF"/>
    <path d="M405 174l43 25-45 13c5-12 6-25 2-38z" fill="#FFB51F"/>
    <circle cx="364" cy="162" r="10" fill="#0D2B5C"/>
  </g>

  <g transform="rotate(-10 319 325)" filter="url(#softShadow)">
    <path d="M198 216h164c22 0 40 18 40 40v185H232c-19 0-34-15-34-34V216z" fill="#3B2112"/>
    <path d="M221 206h159c20 0 36 16 36 36v181c0 15-12 27-27 27H230c-18 0-32-14-32-32V229c0-13 10-23 23-23z" fill="url(#book)"/>
    <path d="M229 238h139c8 0 15 7 15 15v149H248c-10 0-19-8-19-19V238z" fill="none" stroke="url(#gold)" stroke-width="9" stroke-linejoin="round"/>
    <path d="M284 276h29v45h45v29h-45v72h-29v-72h-45v-29h45z" fill="url(#gold)"/>
    <path d="M242 386c25 15 68 18 133 7v37H234c-20 0-36-16-36-36 0-19 23-20 44-8z" fill="#FFF3D8"/>
    <path d="M244 406h118M248 424h100" stroke="#E9C28A" stroke-width="5" stroke-linecap="round"/>
    <path d="M226 219c-15 29-15 64 0 105" stroke="#221308" stroke-width="13" stroke-linecap="round" opacity=".45"/>
    <path d="M223 262c-17 11-27 24-32 40" stroke="url(#gold)" stroke-width="9" stroke-linecap="round"/>
    <path d="M250 428l-31 64-18-42-36 22 26-72z" fill="#FFB51F"/>
  </g>

  <g filter="url(#softShadow)">
    <path d="M180 282c25-18 58-18 71 0 13 18-1 42-31 48-23 5-52-5-65-21-8-10 5-18 25-27z" fill="#FFFFFF"/>
    <path d="M164 312c29-7 63-1 79 15 15 15 8 34-15 40-28 7-67-10-84-35-8-11 0-17 20-20z" fill="#F8FBFD"/>
  </g>
</svg>
